<svg aria-hidden="true" style="position: absolute; width: 0; height: 0; overflow: hidden;" version="1.1" xmlns="http://www.w3.org/2000/svg" xmlns:xlink="http://www.w3.org/1999/xlink">
<defs>
<symbol id="icon-youtube" viewBox="0 0 32 32">
<path fill="#4fbfa5" style="fill: var(--color1, #4fbfa5)" d="M29.411 9.26c-0.333-1.206-1.264-2.137-2.446-2.464l-0.025-0.006c-2.18-0.591-10.94-0.591-10.94-0.591s-8.76 0-10.94 0.591c-1.207 0.332-2.138 1.263-2.465 2.445l-0.006 0.025c-0.375 1.955-0.59 4.204-0.59 6.503 0 0.083 0 0.166 0.001 0.25l-0-0.013c-0.015 2.26 0.183 4.517 0.589 6.74 0.332 1.207 1.264 2.138 2.446 2.465l0.025 0.006c2.18 0.589 10.94 0.589 10.94 0.589s8.76 0 10.94-0.589c1.207-0.332 2.138-1.264 2.465-2.446l0.006-0.025c0.375-1.955 0.59-4.204 0.59-6.504 0-0.083-0-0.166-0.001-0.249l0 0.013c0-0.070 0.001-0.153 0.001-0.236 0-2.299-0.215-4.548-0.625-6.728l0.035 0.224zM13.2 20.2v-8.4l7.269 4.2-7.269 4.2z"></path>
</symbol>
<symbol id="icon-vk" viewBox="0 0 32 32">
<path fill="#4fbfa5" style="fill: var(--color1, #4fbfa5)" d="M28.483 19.677s2.587 2.555 3.227 3.737c0.012 0.016 0.022 0.035 0.029 0.055l0 0.001c0.261 0.436 0.325 0.779 0.197 1.032-0.216 0.417-0.947 0.627-1.195 0.644h-4.573c-0.319 0-0.981-0.083-1.787-0.64-0.616-0.429-1.229-1.139-1.823-1.831-0.887-1.029-1.653-1.923-2.429-1.923-0.001 0-0.001 0-0.002 0-0.102 0-0.201 0.018-0.292 0.050l0.006-0.002c-0.587 0.187-1.333 1.023-1.333 3.252 0 0.697-0.549 1.093-0.935 1.093h-2.095c-0.713 0-4.429-0.249-7.724-3.723-4.035-4.253-7.661-12.784-7.697-12.859-0.225-0.552 0.248-0.853 0.76-0.853h4.617c0.62 0 0.821 0.373 0.963 0.711 0.163 0.385 0.768 1.928 1.76 3.66 1.605 2.82 2.593 3.967 3.381 3.967 0.149 0 0.293-0.037 0.423-0.112 1.031-0.567 0.839-4.247 0.791-5.004 0-0.147-0.001-1.644-0.529-2.367-0.377-0.519-1.021-0.72-1.409-0.793 0.104-0.151 0.324-0.381 0.608-0.517 0.705-0.352 1.98-0.403 3.245-0.403h0.703c1.373 0.019 1.728 0.107 2.227 0.233 1.005 0.24 1.025 0.891 0.937 3.108-0.027 0.635-0.053 1.347-0.053 2.187 0 0.18-0.008 0.38-0.008 0.584-0.031 1.137-0.071 2.419 0.733 2.945 0.098 0.062 0.218 0.099 0.346 0.099 0 0 0 0 0.001 0h-0c0.279 0 1.112 0 3.373-3.88 0.992-1.713 1.76-3.733 1.813-3.887 0.044-0.084 0.179-0.323 0.341-0.419 0.104-0.056 0.228-0.090 0.36-0.090 0.006 0 0.012 0 0.019 0l-0.001-0h5.432c0.592 0 0.993 0.089 1.072 0.313 0.132 0.363-0.025 1.472-2.505 4.827-0.417 0.557-0.784 1.040-1.107 1.463-2.247 2.951-2.247 3.1 0.133 5.34z"></path>
</symbol>
<symbol id="icon-logo" viewBox="0 0 46 32">
<path fill="#000" style="fill: var(--color2, #000)" d="M22.546 30.911l-1.103-23.122c-0.020-0.425 0.253-0.783 0.597-0.783h2.205c0.345 0 0.617 0.358 0.597 0.783l-1.103 23.122c-0.043 0.928-1.149 0.928-1.193 0z"></path>
<path fill="#000" style="fill: var(--color2, #000)" d="M23.143 5.717c1.517 0 2.747-1.238 2.747-2.765s-1.23-2.765-2.747-2.765c-1.517 0-2.747 1.238-2.747 2.765s1.23 2.765 2.747 2.765z"></path>
<path fill="#00868a" style="fill: var(--color3, #00868a)" d="M24.905 7.891h-3.525c-0.362-0.002-0.654-0.295-0.654-0.657 0-0.001 0-0.001 0-0.002v0c0-0 0-0.001 0-0.002 0-0.362 0.293-0.655 0.654-0.657h3.525c0.362 0.002 0.654 0.295 0.654 0.657 0 0.001 0 0.001 0 0.002v-0c0 0 0 0.001 0 0.002 0 0.362-0.293 0.655-0.654 0.657h-0z"></path>
<path fill="#000" style="fill: var(--color2, #000)" d="M46.017 14.063l-16.314-6.419c-0.046-0.019-0.1-0.030-0.156-0.030-0.112 0-0.214 0.044-0.29 0.116l0-0c-1.593 1.535-3.969 2.003-5.757 2.117-0.119 0.007-0.239 0.011-0.358 0.011v5.010c1.146 0 2.292 0.347 3.275 1.041 0.761 0.537 1.498 1.088 2.147 1.589 1.017 0.791 2.312 1.268 3.718 1.268 0.58 0 1.141-0.081 1.672-0.232l-0.043 0.010c0.181-0.052 0.311-0.216 0.311-0.411 0-0.146-0.074-0.275-0.186-0.352l-0.001-0.001-4.841-3.131c-0.441-0.298-0.045-0.975 0.429-0.733l6.27 3.789c0.093 0.047 0.201 0.059 0.301 0.032l3.301-0.886c0.376-0.101 0.429-0.616 0.082-0.792l-8.172-3.57c-0.479-0.243-0.16-0.97 0.341-0.778l10.231 4.282c0.045 0.018 0.097 0.028 0.151 0.028 0.056 0 0.109-0.011 0.158-0.031l-0.003 0.001 3.734-1.134c0.357-0.143 0.357-0.651 0-0.794z"></path>
<path fill="#000" style="fill: var(--color2, #000)" d="M22.785 9.847c-1.787-0.114-4.164-0.582-5.757-2.117-0.075-0.072-0.177-0.116-0.289-0.116-0.056 0-0.11 0.011-0.159 0.031l0.003-0.001-16.314 6.417c-0.358 0.142-0.358 0.651-0.001 0.793l3.734 1.134c0.098 0.039 0.207 0.040 0.306 0.002l10.231-4.283c0.501-0.192 0.819 0.536 0.341 0.779l-8.171 3.57c-0.348 0.177-0.295 0.691 0.081 0.792l3.301 0.886c0.033 0.009 0.070 0.014 0.109 0.014 0.070 0 0.136-0.017 0.195-0.047l-0.002 0.001 6.27-3.789c0.473-0.242 0.869 0.435 0.429 0.734l-4.842 3.131c-0.114 0.078-0.187 0.207-0.187 0.353 0 0.195 0.13 0.359 0.308 0.41l0.003 0.001c1.847 0.513 3.827 0.126 5.348-1.046 0.545-0.428 1.244-0.95 1.953-1.457l0.193-0.131c0.911-0.651 2.048-1.041 3.275-1.041h0v-5.010c-0.119 0-0.238-0.003-0.358-0.011z"></path>
<path fill="#000" style="fill: var(--color2, #000)" d="M21.967 18.781c-0.728-0.077-1.419-0.153-2.094-0.297-1.235-0.265-2.169-0.755-2.562-1.347-0.573-0.864 0.071-1.977 1.003-2.63 0.263-0.184 0.327-0.546 0.145-0.811-0.106-0.151-0.279-0.249-0.475-0.249-0.124 0-0.239 0.039-0.333 0.105l0.002-0.001c-1.629 1.14-2.177 2.92-1.306 4.234 0.727 1.095 2.187 1.605 3.284 1.84 0.059 0.013 0.118 0.023 0.176 0.035 0.65-0.328 1.411-0.47 2.173-0.583l-0.014-0.296z"></path>
<path fill="#000" style="fill: var(--color2, #000)" d="M24.023 24.962c0.547 0.163 0.907 0.39 1.023 0.656 0.082 0.189-0.017 0.425-0.246 0.587-0.215 0.153-0.533 0.238-0.849 0.242l-0.055 1.167h0.042c0.558 0 1.113-0.159 1.531-0.457 0.679-0.483 0.942-1.309 0.637-2.006-0.136-0.3-0.337-0.549-0.586-0.738l-0.005-0.003c-0.422 0.119-0.924 0.215-1.439 0.269l-0.040 0.003-0.013 0.281z"></path>
<path fill="#000" style="fill: var(--color2, #000)" d="M27.126 20.086c-0.189-0.161-0.402-0.303-0.63-0.419l-0.018-0.008c-0.709 0.14-1.433 0.217-2.134 0.291l-0.081 0.009-0.014 0.288c0.851 0.129 1.626 0.297 2.126 0.726 0.297 0.256 0.47 0.598 0.471 0.938 0.001 0.287-0.119 0.543-0.347 0.744-0.48 0.422-1.288 0.706-2.405 0.846-0.16 0.021-0.326 0.037-0.497 0.051-0.157 0.013-0.307 0.029-0.454 0.047-0.364 0.044-0.682 0.104-0.993 0.181l0.055-0.012c-0.602 0.15-1.082 0.363-1.435 0.64-0.271 0.21-0.468 0.458-0.591 0.742-0.303 0.698-0.041 1.523 0.638 2.007 0.418 0.297 0.973 0.457 1.53 0.457l0.043-0.001-0.055-1.167c-0.316-0.003-0.634-0.089-0.849-0.242-0.229-0.163-0.327-0.399-0.246-0.588 0.116-0.266 0.477-0.491 1.023-0.655 0.255-0.077 0.551-0.139 0.881-0.187 0.174-0.025 0.356-0.046 0.548-0.062 0.118-0.009 0.233-0.021 0.346-0.033 0.555-0.057 1.058-0.153 1.544-0.287l-0.065 0.015c0.73-0.203 1.309-0.493 1.744-0.876 0.482-0.423 0.747-1.002 0.743-1.628-0.005-0.68-0.325-1.343-0.879-1.818z"></path>
<path fill="#000" style="fill: var(--color2, #000)" d="M28.633 13.55c-0.092-0.065-0.207-0.104-0.331-0.104-0.196 0-0.37 0.098-0.474 0.248l-0.001 0.002c-0.065 0.093-0.104 0.208-0.104 0.333 0 0.197 0.097 0.371 0.247 0.477l0.002 0.001c0.933 0.653 1.577 1.766 1.003 2.63-0.392 0.591-1.326 1.082-2.562 1.347-0.675 0.145-1.366 0.22-2.094 0.297l-0.095 0.010c-0.567 0.055-0.938 0.099-1.308 0.146l0.227-0.024c-0.124 0.017-0.248 0.033-0.371 0.051-0.13 0.019-0.261 0.037-0.392 0.055l-0.398 0.057c-0.762 0.113-1.523 0.255-2.173 0.582-0.247 0.124-0.46 0.266-0.653 0.431l0.004-0.004c-0.554 0.477-0.874 1.139-0.878 1.818-0.003 0.626 0.261 1.205 0.743 1.629 0.436 0.382 1.013 0.672 1.745 0.875 0.354-0.276 0.833-0.49 1.435-0.64l-0.013-0.267c-1.117-0.141-1.925-0.425-2.406-0.846-0.227-0.201-0.347-0.458-0.346-0.744 0.002-0.341 0.173-0.682 0.471-0.938 0.501-0.43 1.274-0.597 2.126-0.726 0.165-0.025 0.333-0.049 0.502-0.073l0.4-0.057c0.067-0.010 0.136-0.019 0.203-0.029 0.371-0.050 0.749-0.091 1.12-0.13l0.081-0.009c0.702-0.074 1.426-0.151 2.134-0.291l0.176-0.035c1.097-0.234 2.557-0.745 3.284-1.84 0.872-1.313 0.323-3.093-1.304-4.233z"></path>
</symbol>
<symbol id="icon-Group-1" viewBox="0 0 32 32">
<path fill="#4fbfa5" style="fill: var(--color1, #4fbfa5)" d="M32 16c0 8.837-7.163 16-16 16s-16-7.163-16-16c0-8.837 7.163-16 16-16s16 7.163 16 16z"></path>
<path fill="#fff" style="fill: var(--color4, #fff)" d="M16 22.4l-6.4-11.2h12.8l-6.4 11.2z"></path>
</symbol>
<symbol id="icon-instagram" viewBox="0 0 32 32">
<path fill="#4fbfa5" style="fill: var(--color1, #4fbfa5)" d="M22 0h-12c-5.523 0-10 4.477-10 10v0 12c0 5.523 4.477 10 10 10v0h12c5.523 0 10-4.477 10-10v0-12c0-5.523-4.477-10-10-10v0zM29 22c-0.005 3.864-3.136 6.995-7 7h-12c-3.864-0.005-6.995-3.136-7-7v-12c0.005-3.864 3.136-6.995 7-7h12c3.864 0.005 6.995 3.136 7 7v12z"></path>
<path fill="#4fbfa5" style="fill: var(--color1, #4fbfa5)" d="M16 8c-4.418 0-8 3.582-8 8s3.582 8 8 8v0c4.418 0 8-3.582 8-8s-3.582-8-8-8v0zM16 21c-2.76-0.004-4.996-2.24-5-5v-0c0.003-2.76 2.24-4.997 5-5h0c2.76 0.003 4.997 2.24 5 5v0c-0.004 2.76-2.24 4.996-5 5h-0zM24.597 8.467c0.011 0 0.024 0.001 0.038 0.001 0.589 0 1.067-0.478 1.067-1.067s-0.478-1.067-1.067-1.067c-0.013 0-0.026 0-0.040 0.001l0.002-0c-0.573 0.021-1.029 0.49-1.029 1.066s0.456 1.045 1.027 1.066l0.002 0z"></path>
</symbol>
<symbol id="icon-eye" viewBox="0 0 38 32">
<path fill="#fff" style="fill: var(--color4, #fff)" d="M19.017 9.178c-0.931 0-1.821 0.185-2.668 0.553-0.848 0.366-1.572 0.86-2.185 1.465l0.001-0.001c-0.607 0.611-1.102 1.333-1.451 2.134l-0.018 0.045c-0.351 0.786-0.556 1.704-0.556 2.669s0.204 1.883 0.572 2.712l-0.017-0.043c0.371 0.858 0.86 1.591 1.469 2.198 0.608 0.608 1.337 1.089 2.185 1.447 0.781 0.338 1.69 0.535 2.645 0.535 0.008 0 0.016 0 0.024-0h-0.001c0.020 0 0.044 0 0.068 0 2.504 0 4.693-1.35 5.878-3.362l0.017-0.032c0.608-1.047 0.912-2.202 0.912-3.465 0-1.881-0.669-3.494-2.006-4.839-1.337-1.344-2.96-2.017-4.87-2.017zM19.017 20.607c-0.002 0-0.005 0-0.008 0-0.843 0-1.631-0.232-2.305-0.637l0.020 0.011c-0.707-0.41-1.282-0.977-1.69-1.656l-0.012-0.021c-0.392-0.647-0.624-1.429-0.624-2.266 0-0.013 0-0.027 0-0.040v0.002c0.004-1.262 0.516-2.404 1.343-3.232l-0 0c0.831-0.826 1.976-1.337 3.24-1.338h0c1.265 0 2.346 0.445 3.242 1.338 0.895 0.893 1.343 1.969 1.343 3.232 0 1.261-0.442 2.345-1.325 3.249-0.792 0.837-1.91 1.358-3.151 1.358-0.026 0-0.051-0-0.076-0.001l0.004 0zM37.245 15.75c-0.001-0.032-0.008-0.063-0.018-0.091l0.001 0.002c-0.011-0.027-0.017-0.057-0.019-0.089l-0-0.001c0-0.023-0.006-0.041-0.017-0.054l-0.017-0.017v-0.035l-0.036-0.073c-1.623-3.738-4.083-6.672-7.377-8.803s-6.887-3.196-10.778-3.196c-2.556 0-5.015 0.464-7.379 1.392-2.364 0.929-4.506 2.304-6.429 4.125-1.888 1.796-3.416 3.95-4.48 6.355l-0.050 0.127v0.090l-0.035 0.054v0.106l-0.036 0.073c-0.019 0.094-0.032 0.204-0.036 0.316l-0 0.004c0 0.048 0.006 0.096 0.019 0.144 0.011 0.043 0.017 0.091 0.017 0.142 0 0 0 0.001 0 0.001v-0c0 0.023 0.012 0.058 0.036 0.108v0.071l0.017 0.054 0.017 0.017v0.106c1.648 3.738 4.125 6.662 7.433 8.768 3.028 1.982 6.738 3.161 10.723 3.161 0.038 0 0.077-0 0.115-0l-0.006 0c0.017 0 0.037 0 0.057 0 2.628 0 5.138-0.505 7.439-1.422l-0.136 0.048c2.352-0.916 4.481-2.279 6.393-4.089 1.877-1.787 3.39-3.937 4.428-6.34l0.048-0.125c0.025 0 0.036-0.012 0.036-0.035v-0.054l0.017-0.035 0.017-0.019v-0.106l0.036-0.073c0.023-0.143 0.036-0.249 0.036-0.32-0-0.051-0.007-0.101-0.020-0.148l0.001 0.004c-0.011-0.043-0.017-0.092-0.017-0.142 0-0 0-0 0-0.001v0zM18.909 26.321c-3.389 0-6.531-0.887-9.418-2.662-2.889-1.773-5.087-4.314-6.589-7.623 1.503-3.311 3.712-5.863 6.624-7.661 2.913-1.798 6.065-2.697 9.455-2.697 2.196 0 4.304 0.381 6.321 1.143 2.017 0.761 3.873 1.935 5.569 3.517 1.695 1.584 3.043 3.482 4.047 5.697-1.504 3.309-3.7 5.85-6.589 7.625-2.649 1.67-5.871 2.661-9.324 2.661-0.034 0-0.067-0-0.101-0l0.005 0z"></path>
</symbol>
<symbol id="icon-facebook" viewBox="0 0 32 32">
<path fill="#4fbfa5" style="fill: var(--color1, #4fbfa5)" d="M17.863 27.996v-10.929h3.687l0.548-4.28h-4.235v-2.721c0-1.235 0.344-2.080 2.116-2.080h2.245v-3.816c-1.093-0.117-2.191-0.173-3.289-0.169-3.259 0-5.496 1.989-5.496 5.64v3.141h-3.663v4.279h3.671v10.936h4.416z"></path>
</symbol>
</defs>
</svg>
