<svg aria-hidden="true" style="position: absolute; width: 0; height: 0; overflow: hidden;" version="1.1" xmlns="http://www.w3.org/2000/svg" xmlns:xlink="http://www.w3.org/1999/xlink">
<defs>
<symbol id="icon-logo-1" viewBox="0 0 108 32">
<path fill="#000" style="fill: var(--color1, #000)" d="M22.546 30.911l-1.103-23.122c-0.020-0.425 0.253-0.783 0.597-0.783h2.205c0.345 0 0.617 0.358 0.597 0.783l-1.103 23.122c-0.043 0.928-1.149 0.928-1.193 0z"></path>
<path fill="#000" style="fill: var(--color1, #000)" d="M23.143 5.717c1.517 0 2.747-1.238 2.747-2.765s-1.23-2.765-2.747-2.765c-1.517 0-2.747 1.238-2.747 2.765s1.23 2.765 2.747 2.765z"></path>
<path fill="#00868a" style="fill: var(--color2, #00868a)" d="M24.905 7.891h-3.525c-0.362-0.002-0.654-0.295-0.654-0.657 0-0.001 0-0.001 0-0.002v0c0-0 0-0.001 0-0.002 0-0.362 0.293-0.655 0.654-0.657h3.525c0.362 0.002 0.654 0.295 0.654 0.657 0 0.001 0 0.001 0 0.002v-0c0 0 0 0.001 0 0.002 0 0.362-0.293 0.655-0.654 0.657h-0z"></path>
<path fill="#000" style="fill: var(--color1, #000)" d="M46.017 14.063l-16.314-6.419c-0.046-0.019-0.1-0.030-0.156-0.030-0.112 0-0.214 0.044-0.29 0.116l0-0c-1.593 1.535-3.969 2.003-5.757 2.117-0.119 0.007-0.239 0.011-0.358 0.011v5.010c1.146 0 2.292 0.347 3.275 1.041 0.761 0.537 1.498 1.088 2.147 1.589 1.017 0.791 2.312 1.268 3.718 1.268 0.58 0 1.141-0.081 1.672-0.232l-0.043 0.010c0.181-0.052 0.311-0.216 0.311-0.411 0-0.146-0.074-0.275-0.186-0.352l-0.001-0.001-4.841-3.131c-0.441-0.298-0.045-0.975 0.429-0.733l6.27 3.789c0.093 0.047 0.201 0.059 0.301 0.032l3.301-0.886c0.376-0.101 0.429-0.616 0.082-0.792l-8.172-3.57c-0.479-0.243-0.16-0.97 0.341-0.778l10.231 4.282c0.045 0.018 0.097 0.028 0.151 0.028 0.056 0 0.109-0.011 0.158-0.031l-0.003 0.001 3.734-1.134c0.357-0.143 0.357-0.651 0-0.794z"></path>
<path fill="#000" style="fill: var(--color1, #000)" d="M22.785 9.847c-1.787-0.114-4.164-0.582-5.757-2.117-0.075-0.072-0.177-0.116-0.289-0.116-0.056 0-0.11 0.011-0.159 0.031l0.003-0.001-16.314 6.417c-0.358 0.142-0.358 0.651-0.001 0.793l3.734 1.134c0.098 0.039 0.207 0.040 0.306 0.002l10.231-4.283c0.501-0.192 0.819 0.536 0.341 0.779l-8.171 3.57c-0.348 0.177-0.295 0.691 0.081 0.792l3.301 0.886c0.033 0.009 0.070 0.014 0.109 0.014 0.070 0 0.136-0.017 0.195-0.047l-0.002 0.001 6.27-3.789c0.473-0.242 0.869 0.435 0.429 0.734l-4.842 3.131c-0.114 0.078-0.187 0.207-0.187 0.353 0 0.195 0.13 0.359 0.308 0.41l0.003 0.001c1.847 0.513 3.827 0.126 5.348-1.046 0.545-0.428 1.244-0.95 1.953-1.457l0.193-0.131c0.911-0.651 2.048-1.041 3.275-1.041h0v-5.010c-0.119 0-0.238-0.003-0.358-0.011z"></path>
<path fill="#000" style="fill: var(--color1, #000)" d="M21.967 18.781c-0.728-0.077-1.419-0.153-2.094-0.297-1.235-0.265-2.169-0.755-2.562-1.347-0.573-0.864 0.071-1.977 1.003-2.63 0.263-0.184 0.327-0.546 0.145-0.811-0.106-0.151-0.279-0.249-0.475-0.249-0.124 0-0.239 0.039-0.333 0.105l0.002-0.001c-1.629 1.14-2.177 2.92-1.306 4.234 0.727 1.095 2.187 1.605 3.284 1.84 0.059 0.013 0.118 0.023 0.176 0.035 0.65-0.328 1.411-0.47 2.173-0.583l-0.014-0.296z"></path>
<path fill="#000" style="fill: var(--color1, #000)" d="M24.023 24.962c0.547 0.163 0.907 0.39 1.023 0.656 0.082 0.189-0.017 0.425-0.246 0.587-0.215 0.153-0.533 0.238-0.849 0.242l-0.055 1.167h0.042c0.558 0 1.113-0.159 1.531-0.457 0.679-0.483 0.942-1.309 0.637-2.006-0.136-0.3-0.337-0.549-0.586-0.738l-0.005-0.003c-0.422 0.119-0.924 0.215-1.439 0.269l-0.040 0.003-0.013 0.281z"></path>
<path fill="#000" style="fill: var(--color1, #000)" d="M27.126 20.086c-0.189-0.161-0.402-0.303-0.63-0.419l-0.018-0.008c-0.709 0.14-1.433 0.217-2.134 0.291l-0.081 0.009-0.014 0.288c0.851 0.129 1.626 0.297 2.126 0.726 0.297 0.256 0.47 0.598 0.471 0.938 0.001 0.287-0.119 0.543-0.347 0.744-0.48 0.422-1.288 0.706-2.405 0.846-0.16 0.021-0.326 0.037-0.497 0.051-0.157 0.013-0.307 0.029-0.454 0.047-0.364 0.044-0.682 0.104-0.993 0.181l0.055-0.012c-0.602 0.15-1.082 0.363-1.435 0.64-0.271 0.21-0.468 0.458-0.591 0.742-0.303 0.698-0.041 1.523 0.638 2.007 0.418 0.297 0.973 0.457 1.53 0.457l0.043-0.001-0.055-1.167c-0.316-0.003-0.634-0.089-0.849-0.242-0.229-0.163-0.327-0.399-0.246-0.588 0.116-0.266 0.477-0.491 1.023-0.655 0.255-0.077 0.551-0.139 0.881-0.187 0.174-0.025 0.356-0.046 0.548-0.062 0.118-0.009 0.233-0.021 0.346-0.033 0.555-0.057 1.058-0.153 1.544-0.287l-0.065 0.015c0.73-0.203 1.309-0.493 1.744-0.876 0.482-0.423 0.747-1.002 0.743-1.628-0.005-0.68-0.325-1.343-0.879-1.818z"></path>
<path fill="#000" style="fill: var(--color1, #000)" d="M28.633 13.55c-0.092-0.065-0.207-0.104-0.331-0.104-0.196 0-0.37 0.098-0.474 0.248l-0.001 0.002c-0.065 0.093-0.104 0.208-0.104 0.333 0 0.197 0.097 0.371 0.247 0.477l0.002 0.001c0.933 0.653 1.577 1.766 1.003 2.63-0.392 0.591-1.326 1.082-2.562 1.347-0.675 0.145-1.366 0.22-2.094 0.297l-0.095 0.010c-0.567 0.055-0.938 0.099-1.308 0.146l0.227-0.024c-0.124 0.017-0.248 0.033-0.371 0.051-0.13 0.019-0.261 0.037-0.392 0.055l-0.398 0.057c-0.762 0.113-1.523 0.255-2.173 0.582-0.247 0.124-0.46 0.266-0.653 0.431l0.004-0.004c-0.554 0.477-0.874 1.139-0.878 1.818-0.003 0.626 0.261 1.205 0.743 1.629 0.436 0.382 1.013 0.672 1.745 0.875 0.354-0.276 0.833-0.49 1.435-0.64l-0.013-0.267c-1.117-0.141-1.925-0.425-2.406-0.846-0.227-0.201-0.347-0.458-0.346-0.744 0.002-0.341 0.173-0.682 0.471-0.938 0.501-0.43 1.274-0.597 2.126-0.726 0.165-0.025 0.333-0.049 0.502-0.073l0.4-0.057c0.067-0.010 0.136-0.019 0.203-0.029 0.371-0.050 0.749-0.091 1.12-0.13l0.081-0.009c0.702-0.074 1.426-0.151 2.134-0.291l0.176-0.035c1.097-0.234 2.557-0.745 3.284-1.84 0.872-1.313 0.323-3.093-1.304-4.233z"></path>
<path fill="#333" style="fill: var(--color3, #333)" d="M70.451 8.089l0.096 0.087v0.534l-0.086 0.076c-0.779 0.022-1.263 0.063-1.451 0.12s-0.321 0.154-0.398 0.288c-0.078 0.134-0.123 0.397-0.133 0.789s-0.030 1.499-0.059 3.32v5.019c0 0.726 0.011 1.546 0.032 2.46s0.065 1.447 0.133 1.595c0.067 0.149 0.19 0.258 0.366 0.326s0.681 0.114 1.51 0.137l0.086 0.077v0.533l-0.096 0.087c-0.891-0.058-1.945-0.093-3.006-0.098l-0.014-0c-0.582 0-1.57 0.033-2.966 0.098l-0.096-0.087v-0.522l0.086-0.087c0.779-0.022 1.263-0.061 1.451-0.12 0.187-0.058 0.321-0.154 0.398-0.288s0.124-0.4 0.139-0.8c0.014-0.399 0.032-1.502 0.053-3.309v-7.991l-3.668 7.859c-0.606 1.202-1.417 3.031-2.174 4.888l-0.24 0.665h-0.415c-0.571-1.4-0.9-2.139-1.237-2.873l0.259 0.63-5.082-10.809v7.61c0 0.711 0.009 1.53 0.027 2.455s0.062 1.461 0.133 1.606c0.070 0.146 0.195 0.255 0.371 0.327 0.177 0.073 0.681 0.115 1.51 0.131l0.085 0.087v0.522l-0.096 0.098-0.681-0.033c-0.531-0.031-1.162-0.051-1.797-0.055l-0.010-0c-0.227 0-1.074 0.029-2.541 0.087l-0.086-0.087v-0.522l0.086-0.098c0.779-0.014 1.261-0.050 1.446-0.109 0.184-0.058 0.317-0.156 0.398-0.294s0.128-0.395 0.138-0.773c0.011-0.377 0.027-1.491 0.048-3.342v-4.986c0-0.66-0.008-1.465-0.026-2.411s-0.061-1.495-0.128-1.644c-0.067-0.149-0.19-0.26-0.366-0.331-0.177-0.073-0.681-0.116-1.51-0.131l-0.086-0.087v-0.524l0.096-0.098c0.489 0.036 1.149 0.055 1.977 0.055 0.781 0 1.46-0.017 2.042-0.055 0.769 1.856 1.343 3.114 1.946 4.355l-0.234-0.534 4.030 8.47 3.636-7.762c0.986-2.097 1.648-3.607 1.988-4.529 0.681 0.036 1.35 0.055 2.009 0.055 0.595 0 1.296-0.017 2.105-0.055zM71.822 8.133l0.085-0.076c2.431 0.043 3.987 0.065 4.668 0.065 2.325 0 4.394-0.022 6.208-0.065l0.053 0.076c-0.177 0.697-0.308 1.789-0.393 3.278l-0.064 0.087h-0.521l-0.095-0.087c0.007-0.066 0.010-0.123 0.010-0.175 0-0.616-0.046-1.205-0.138-1.764-0.446-0.203-1.066-0.336-1.855-0.397-0.79-0.061-1.384-0.093-1.781-0.093-0.56 0-1.275 0.040-2.147 0.12l-0.043 1.741-0.032 1.992-0.032 2.211c0.765 0.043 1.47 0.065 2.116 0.065 0.652 0 1.198-0.022 1.638-0.065 0.439-0.044 0.697-0.089 0.77-0.137 0.074-0.046 0.131-0.137 0.17-0.271 0.038-0.134 0.073-0.371 0.101-0.713l0.043-0.675 0.085-0.087h0.489l0.085 0.087c-0.019 1.077-0.038 1.911-0.061 2.744l0.008-0.36 0.053 2.449-0.085 0.087h-0.489l-0.085-0.087-0.075-0.653c-0.064-0.509-0.11-0.811-0.138-0.909-0.035-0.108-0.105-0.196-0.195-0.255l-0.002-0.001c-0.103-0.072-0.366-0.131-0.791-0.174s-1.010-0.066-1.754-0.066c-0.411 0-1.039 0.019-1.882 0.055-0.035 0.61-0.053 1.626-0.053 3.048 0 1.525 0.018 2.646 0.053 3.364h1.956c1.723 0 2.8-0.022 3.231-0.066 0.455-0.046 0.873-0.157 1.261-0.326l-0.027 0.010c0.064-0.167 0.169-0.553 0.313-1.16 0.145-0.605 0.229-0.985 0.25-1.137l0.107-0.077h0.51l0.085 0.076c-0.064 0.312-0.126 0.857-0.186 1.634-0.052 0.588-0.085 1.281-0.091 1.981l-0 0.011-0.074 0.087c-1.354-0.044-3.126-0.066-5.315-0.066l-2.891-0.022c-0.673 0-1.375 0.029-2.105 0.087l-0.085-0.087v-0.359l0.085-0.109c0.418-0.218 0.657-0.354 0.718-0.408s0.11-0.69 0.149-1.905 0.059-2.143 0.059-2.781v-3.994l-0.011-2.471c0-0.537-0.007-0.974-0.021-1.311s-0.039-0.578-0.074-0.725c-0.035-0.145-0.077-0.246-0.123-0.305-0.046-0.057-0.121-0.107-0.223-0.147s-0.278-0.074-0.526-0.104l-0.808-0.065-0.085-0.077v-0.545h-0.001zM84.664 8.133l0.086-0.076c1.226 0.057 2.062 0.087 2.509 0.087l4.975-0.109c1.417 0 2.579 0.136 3.487 0.408s1.713 0.744 2.418 1.415c0.68 0.644 1.224 1.423 1.589 2.296l0.017 0.044c0.364 0.889 0.547 1.839 0.547 2.847 0 0.979-0.166 1.949-0.499 2.906-0.344 0.987-0.826 1.842-1.432 2.591l0.013-0.016c-0.613 0.758-1.311 1.37-2.094 1.834s-1.569 0.774-2.355 0.93c-0.719 0.149-1.546 0.234-2.393 0.234-0.007 0-0.014 0-0.021-0h0.001c-0.553 0-1.595-0.022-3.126-0.066-0.273-0.010-0.622-0.018-0.973-0.021l-0.027-0c-0.489 0-1.081 0.029-1.775 0.087l-0.085-0.087v-0.359l0.085-0.109c0.418-0.219 0.657-0.354 0.718-0.409 0.059-0.055 0.11-0.69 0.149-1.905 0.038-1.215 0.058-2.143 0.058-2.781v-3.993l-0.011-2.471c0-0.537-0.007-0.974-0.021-1.311s-0.039-0.578-0.074-0.725c-0.035-0.145-0.077-0.246-0.123-0.305-0.046-0.057-0.12-0.107-0.223-0.147-0.102-0.040-0.278-0.074-0.526-0.104l-0.808-0.065-0.085-0.077v-0.545h-0.001zM88.598 22.34c0.723 0.145 1.555 0.218 2.498 0.218 1.651 0 2.971-0.282 3.96-0.849s1.727-1.404 2.216-2.515c0.489-1.111 0.734-2.362 0.734-3.755 0-2.054-0.535-3.647-1.606-4.78-1.070-1.133-2.757-1.699-5.061-1.699-0.949 0-1.865 0.074-2.742 0.218-0.054 1.141-0.085 2.479-0.085 3.823 0 0.072 0 0.144 0 0.217l-0-0.011v3.418l0.021 3.201c0 0.623 0.021 1.462 0.064 2.514zM101.822 8.057l1.329 0.043c0.872 0.029 1.443 0.043 1.713 0.043 0.241 0 1.258-0.029 3.051-0.087l0.086 0.076v0.545l-0.086 0.077c-0.489 0.014-0.866 0.036-1.133 0.065s-0.459 0.084-0.579 0.164c-0.12 0.079-0.2 0.266-0.239 0.561-0.039 0.294-0.059 0.703-0.059 1.225l-0.021 2.504v5.040l0.011 2.123c0.007 0.821 0.027 1.35 0.063 1.59s0.086 0.4 0.155 0.479c0.067 0.079 0.197 0.147 0.387 0.202 0.192 0.054 0.663 0.096 1.414 0.126l0.085 0.065v0.545l-0.085 0.087c-0.035 0-0.66-0.022-1.871-0.065-0.34-0.012-0.753-0.019-1.168-0.022l-0.013-0c-0.219 0-1.234 0.029-3.041 0.087l-0.086-0.087v-0.545l0.086-0.066c0.659-0.029 1.098-0.065 1.318-0.109s0.366-0.099 0.441-0.17c0.074-0.069 0.134-0.216 0.181-0.441 0.046-0.225 0.073-0.726 0.080-1.503l0.010-2.296v-5.041l-0.021-2.123c-0.007-0.827-0.027-1.36-0.059-1.6s-0.082-0.4-0.149-0.479c-0.067-0.080-0.197-0.145-0.387-0.196-0.192-0.050-0.663-0.091-1.414-0.12l-0.086-0.077v-0.546l0.086-0.076z"></path>
</symbol>
</defs>
</svg>
